<?xml version="1.0" standalone="no"?>
<!DOCTYPE svg PUBLIC "-//W3C//DTD SVG 20010904//EN"
 "http://www.w3.org/TR/2001/REC-SVG-20010904/DTD/svg10.dtd">
<svg version="1.0" xmlns="http://www.w3.org/2000/svg"
 width="32.000000pt" height="32.000000pt" viewBox="0 0 32.000000 32.000000"
 preserveAspectRatio="xMidYMid meet">

<g transform="translate(0.000000,32.000000) scale(0.100000,-0.100000)"
fill="#000000" stroke="none">
<path d="M127 309 c-10 -6 -22 -22 -27 -35 -7 -17 -17 -24 -35 -24 l-25 0 0
-125 0 -125 120 0 120 0 0 125 0 125 -25 0 c-18 0 -28 7 -35 24 -15 40 -57 56
-93 35z m71 -36 c14 -23 14 -23 -37 -23 -53 0 -55 3 -28 38 15 19 47 11 65
-15z m-108 -63 c0 -11 4 -20 9 -20 5 0 11 9 14 20 4 16 14 20 47 20 33 0 43
-4 47 -20 3 -11 9 -20 14 -20 5 0 9 9 9 20 0 11 7 20 15 20 12 0 15 -18 15
-105 l0 -105 -100 0 -100 0 0 105 c0 87 3 105 15 105 8 0 15 -9 15 -20z"/>
</g>
</svg>
