<?xml version="1.0" standalone="no"?>
<!DOCTYPE svg PUBLIC "-//W3C//DTD SVG 20010904//EN"
 "http://www.w3.org/TR/2001/REC-SVG-20010904/DTD/svg10.dtd">
<svg version="1.0" xmlns="http://www.w3.org/2000/svg"
 width="32.000000pt" height="32.000000pt" viewBox="0 0 32.000000 32.000000"
 preserveAspectRatio="xMidYMid meet">

<g transform="translate(0.000000,32.000000) scale(0.100000,-0.100000)"
fill="#000000" stroke="none">
<path d="M68 298 c-85 -49 -90 -160 -9 -217 33 -24 95 -28 136 -9 24 11 29 8
70 -32 58 -57 72 -43 15 15 l-43 44 18 37 c31 65 4 133 -67 170 -38 20 -77 17
-120 -8z m105 -7 c59 -23 87 -87 63 -145 -19 -45 -52 -66 -102 -66 -52 0 -90
28 -105 79 -15 49 8 102 54 125 37 18 56 20 90 7z"/>
</g>
</svg>
