<svg width="16" height="17" viewBox="0 0 16 17" fill="none" xmlns="http://www.w3.org/2000/svg">
<path d="M8.00224 16.0579C12.4217 16.0579 16.0045 12.4752 16.0045 8.05571C16.0045 3.63619 12.4217 0.0534668 8.00224 0.0534668C3.58272 0.0534668 0 3.63619 0 8.05571C0 12.4752 3.58272 16.0579 8.00224 16.0579Z" fill="#F0F0F0"/>
<path d="M4.52344 10.8389L5.21929 15.5601C6.08616 15.8817 7.02382 16.0577 8.00266 16.0577C11.4433 16.0577 14.3765 13.8861 15.5071 10.8389H4.52344Z" fill="black"/>
<path d="M4.52344 5.27233L5.21929 0.551137C6.08616 0.229454 7.02382 0.0534668 8.00266 0.0534668C11.4433 0.0534668 14.3765 2.22507 15.5071 5.27233H4.52344Z" fill="#6DA544"/>
<path d="M0 8.05553C0 11.4962 2.17164 14.4294 5.21886 15.56V0.551025C2.17164 1.68169 0 4.61485 0 8.05553Z" fill="#A2001D"/>
</svg>