<svg width="16" height="16" viewBox="0 0 16 16" fill="none" xmlns="http://www.w3.org/2000/svg">
<path d="M8.00224 16.0088C12.4217 16.0088 16.0045 12.4261 16.0045 8.00662C16.0045 3.58711 12.4217 0.00439453 8.00224 0.00439453C3.58272 0.00439453 0 3.58711 0 8.00662C0 12.4261 3.58272 16.0088 8.00224 16.0088Z" fill="#F0F0F0"/>
<path d="M8.00178 0.00439453C6.39583 0.00439453 4.90067 0.477807 3.64744 1.29219L5.70548 2.6716L3.13086 4.00529L5.70548 5.33897L3.13086 6.67266L5.70548 8.00618L3.13086 9.33984L5.70548 10.6735L3.13086 12.0073L5.70548 13.341L3.64719 14.7208C4.90048 15.5354 6.39574 16.0088 8.00178 16.0088C12.4213 16.0088 16.004 12.4261 16.004 8.00662C16.004 3.58714 12.4213 0.00439453 8.00178 0.00439453Z" fill="#D80027"/>
</svg>
