<svg width="16" height="17" viewBox="0 0 16 17" fill="none" xmlns="http://www.w3.org/2000/svg">
<path d="M15.5067 10.808C15.8284 9.9411 16.0045 9.00346 16.0045 8.02463C16.0045 7.04579 15.8284 6.10816 15.5067 5.24126L8.00223 4.54541L0.497732 5.24126C0.17608 6.10816 0 7.04579 0 8.02463C0 9.00346 0.17608 9.9411 0.497732 10.808L8.00223 11.5038L15.5067 10.808Z" fill="#F0F0F0"/>
<path d="M8.00257 16.027C11.4432 16.027 14.3764 13.8554 15.507 10.8081H0.498047C1.62874 13.8554 4.56187 16.027 8.00257 16.027Z" fill="#D80027"/>
<path d="M8.00257 0.0224609C4.56187 0.0224609 1.62874 2.19407 0.498047 5.24132H15.5071C14.3764 2.19407 11.4432 0.0224609 8.00257 0.0224609Z" fill="#6DA544"/>
<path d="M2.34379 2.36621C-0.781264 5.49127 -0.781264 10.558 2.34379 13.6831C3.15949 12.8674 3.95565 12.0713 5.21884 10.8081V5.24129L2.34379 2.36621Z" fill="black"/>
</svg>
