<svg width="16" height="17" viewBox="0 0 16 17" fill="none" xmlns="http://www.w3.org/2000/svg">
<path d="M8.00224 16.0401C12.4217 16.0401 16.0045 12.4574 16.0045 8.03788C16.0045 3.61837 12.4217 0.0356445 8.00224 0.0356445C3.58272 0.0356445 0 3.61837 0 8.03788C0 12.4574 3.58272 16.0401 8.00224 16.0401Z" fill="#F0F0F0"/>
<path d="M0 8.03779C0 11.071 1.68766 13.7098 4.17507 15.067V1.00854C1.68766 2.36574 0 5.0046 0 8.03779Z" fill="#D80027"/>
<path d="M15.5068 10.8211C15.8284 9.95424 16.0045 9.0166 16.0045 8.03777C16.0045 7.05893 15.8284 6.12126 15.5068 5.25439H0.497764C0.17608 6.12126 0 7.05893 0 8.03777C0 9.0166 0.17608 9.95424 0.497764 10.8211L8.00224 11.517L15.5068 10.8211Z" fill="#D80027"/>
<path d="M8.00252 16.0402C11.4432 16.0402 14.3764 13.8685 15.5071 10.8213H0.498047C1.62868 13.8685 4.56187 16.0402 8.00252 16.0402Z" fill="#6DA544"/>
<path d="M0 8.0376C0 11.7348 2.50761 14.8459 5.91468 15.7642V0.311035C2.50761 1.22929 0 4.34035 0 8.0376Z" fill="#D80027"/>
<path d="M4.89573 3.55714L4.15768 2.81909L3.66567 3.31117L3.17366 2.81909L2.43561 3.55714L2.92765 4.04919L2.43555 4.54126L3.1736 5.27931L3.66564 4.78724L4.15768 5.27931L4.89573 4.54126L4.40369 4.04919L4.89573 3.55714Z" fill="#F0F0F0"/>
</svg>
