<svg width="16" height="17" viewBox="0 0 16 17" fill="none" xmlns="http://www.w3.org/2000/svg">
<path d="M8.00224 16.0445C12.4217 16.0445 16.0045 12.4618 16.0045 8.04227C16.0045 3.62276 12.4217 0.0400391 8.00224 0.0400391C3.58272 0.0400391 0 3.62276 0 8.04227C0 12.4618 3.58272 16.0445 8.00224 16.0445Z" fill="#F0F0F0"/>
<path d="M16.005 8.04227C16.005 3.62279 12.4222 0.0400391 8.00276 0.0400391C6.43732 0.0400391 4.9771 0.490009 3.74369 1.26698L5.49772 2.01221L3.13184 3.01743L5.49772 4.02262L3.13184 5.02778L5.49772 6.0329L3.13184 7.0379L5.49772 8.04284L3.13184 9.04799L5.49772 10.0531L3.13184 11.0581L5.49772 12.0632L3.13184 13.0683L5.49772 14.0733L3.74448 14.8182C4.97773 15.5948 6.43763 16.0445 8.00276 16.0445C12.4222 16.0445 16.005 12.4618 16.005 8.04227Z" fill="#751A46"/>
</svg>
