<svg width="24" height="25" viewBox="0 0 24 25" fill="none" xmlns="http://www.w3.org/2000/svg">
<path d="M12 24.0233C18.6274 24.0233 24 18.6507 24 12.0233C24 5.3959 18.6274 0.0233154 12 0.0233154C5.37258 0.0233154 0 5.3959 0 12.0233C0 18.6507 5.37258 24.0233 12 24.0233Z" fill="#6DA544"/>
<path d="M6.78259 14.3711C6.78259 15.2356 7.48337 15.9363 8.3478 15.9363H13.0435C13.0435 16.6567 13.6274 17.2407 14.3478 17.2407H15.913C16.6334 17.2407 17.2173 16.6567 17.2173 15.9363V14.3711H6.78259Z" fill="#F0F0F0"/>
<path d="M17.3478 6.80594V10.4581C17.3478 11.0335 16.8797 11.5016 16.3043 11.5016V13.0668C17.7428 13.0668 18.913 11.8965 18.913 10.4581V6.80594L17.3478 6.80594Z" fill="#F0F0F0"/>
<path d="M6.1304 10.4583C6.1304 11.0337 5.6623 11.5017 5.08691 11.5017V13.067C6.52537 13.067 7.6956 11.8967 7.6956 10.4583V6.80609H6.1304V10.4583Z" fill="#F0F0F0"/>
<rect x="15" y="6.80594" width="1.5652" height="3.65217" fill="#F0F0F0"/>
<path d="M12.6522 8.89286C12.6522 9.03672 12.5351 9.15372 12.3913 9.15372C12.2475 9.15372 12.1304 9.03667 12.1304 8.89286V6.80589H10.5652V8.89286C10.5652 9.03672 10.4482 9.15372 10.3044 9.15372C10.1606 9.15372 10.0435 9.03667 10.0435 8.89286V6.80589H8.47827V8.89286C8.47827 9.89978 9.29746 10.719 10.3044 10.719C10.6922 10.719 11.0518 10.5971 11.3479 10.3901C11.6439 10.597 12.0036 10.719 12.3913 10.719C12.4694 10.719 12.5462 10.7135 12.6217 10.7039C12.5108 11.1609 12.0993 11.5015 11.6087 11.5015V13.0668C13.0472 13.0668 14.2174 11.8965 14.2174 10.4581V8.89286V6.80589H12.6522V8.89286H12.6522Z" fill="#F0F0F0"/>
<rect x="8.47827" y="11.5016" width="2.34783" height="1.5652" fill="#F0F0F0"/>
</svg>
